HIERARCHY
ROOT root
{
	OFFSET 0.000000 0.000000 0.000000
	CHANNELS 6 Xposition Yposition Zposition Zrotation Yrotation Xrotation
	JOINT lhip
	{
		OFFSET 0.058581 -0.082280 -0.017664
		CHANNELS 3 Zrotation Yrotation Xrotation
		JOINT lknee
		{
			OFFSET 0.043451 -0.386469 0.008037
			CHANNELS 3 Zrotation Yrotation Xrotation
			JOINT lankle
			{
				OFFSET -0.014790 -0.426874 -0.037428
				CHANNELS 3 Zrotation Yrotation Xrotation
				JOINT ltoe
				{
					OFFSET 0.041054 -0.060286 0.122042
					CHANNELS 3 Zrotation Yrotation Xrotation
					End Site
					{
						OFFSET 0.000000 0.000000 0.000000
					}
				}
			}
		}
	}
	JOINT rhip
	{
		OFFSET -0.060310 -0.090513 -0.013543
		CHANNELS 3 Zrotation Yrotation Xrotation
		JOINT rknee
		{
			OFFSET -0.043257 -0.383688 -0.004843
			CHANNELS 3 Zrotation Yrotation Xrotation
			JOINT rankle
			{
				OFFSET 0.019056 -0.420046 -0.034562
				CHANNELS 3 Zrotation Yrotation Xrotation
				JOINT rtoe
				{
					OFFSET -0.034840 -0.062106 0.130323
					CHANNELS 3 Zrotation Yrotation Xrotation
					End Site
					{
						OFFSET 0.000000 0.000000 0.000000
					}
				}
			}
		}
	}
	JOINT lowerback
	{
		OFFSET 0.004439 0.124404 -0.038385
		CHANNELS 3 Zrotation Yrotation Xrotation
		JOINT upperback
		{
			OFFSET 0.004488 0.137956 0.026820
			CHANNELS 3 Zrotation Yrotation Xrotation
			JOINT chest
			{
				OFFSET -0.002265 0.056032 0.002855
				CHANNELS 3 Zrotation Yrotation Xrotation
				JOINT lowerneck
				{
					OFFSET -0.013390 0.211636 -0.033468
					CHANNELS 3 Zrotation Yrotation Xrotation
					JOINT upperneck
					{
						OFFSET 0.010113 0.088937 0.050410
						CHANNELS 3 Zrotation Yrotation Xrotation
						End Site
						{
							OFFSET 0.000000 0.000000 0.000000
						}
					}
				}
				JOINT lclavicle
				{
					OFFSET 0.071702 0.114000 -0.018898
					CHANNELS 3 Zrotation Yrotation Xrotation
					JOINT lshoulder
					{
						OFFSET 0.122921 0.045205 -0.019046
						CHANNELS 3 Zrotation Yrotation Xrotation
						JOINT lelbow
						{
							OFFSET 0.255332 -0.015649 -0.022946
							CHANNELS 3 Zrotation Yrotation Xrotation
							JOINT lwrist
							{
								OFFSET 0.265709 0.012698 -0.007375
								CHANNELS 3 Zrotation Yrotation Xrotation
								End Site
								{
									OFFSET 0.000000 0.000000 0.000000
								}
							}
						}
					}
				}
				JOINT rclavicle
				{
					OFFSET -0.082954 0.112472 -0.023707
					CHANNELS 3 Zrotation Yrotation Xrotation
					JOINT rshoulder
					{
						OFFSET -0.113228 0.046853 -0.008472
						CHANNELS 3 Zrotation Yrotation Xrotation
						JOINT relbow
						{
							OFFSET -0.260127 -0.014369 -0.031269
							CHANNELS 3 Zrotation Yrotation Xrotation
							JOINT rwrist
							{
								OFFSET -0.269108 0.006794 -0.006027
								CHANNELS 3 Zrotation Yrotation Xrotation
								End Site
								{
									OFFSET 0.000000 0.000000 0.000000
								}
							}
						}
					}
				}
			}
		}
	}
}
MOTION
Frames: 14
Frame Time: 0.033333
0.728241 0.722834 0.866041 -95.250230 3.477986 86.968341 25.322134 5.913040 -33.720259 -11.208299 -1.400408 44.284689 -7.871234 3.906616 -16.831048 0.000000 -0.000000 0.000000 -32.450774 1.487963 13.072389 5.028350 27.628839 45.393368 14.480513 7.170578 -25.045776 0.000000 -0.000000 0.000000 3.400745 6.317333 15.802263 6.946572 -7.559425 10.935247 0.979617 -0.349832 1.801943 4.165523 14.706281 6.762916 -0.859373 7.705188 10.693188 -16.843176 0.167907 3.114897 -36.241670 4.306153 -5.241913 -0.086623 -34.456924 5.885759 3.116554 -8.094608 -10.092711 23.146546 -1.970758 1.480539 40.591821 -1.793451 2.481580 -28.430014 56.519507 -20.760490 6.811460 4.876885 -2.368523 
0.715520 0.699243 0.859831 -94.887985 5.179464 89.180303 25.614800 6.834337 -37.922432 -11.860554 -0.332533 48.805336 -6.809366 2.957288 -19.193209 0.000000 -0.000000 0.000000 -31.797642 0.761270 11.481405 4.368202 29.733204 44.198721 16.993052 9.133887 -18.359682 0.000000 -0.000000 0.000000 3.163918 7.486568 17.267764 7.168205 -7.634262 10.520322 1.249964 -0.012032 1.481923 2.751441 14.071570 7.223288 0.821726 7.121035 8.717152 -15.404626 -2.716184 3.149732 -35.346638 1.368380 -5.257701 0.046109 -36.247754 5.276133 5.824394 -8.354051 -11.197696 22.803097 -1.864338 2.180638 43.038044 -3.760684 2.538445 -28.650497 57.729565 -18.938535 6.710554 5.092504 -2.428069 
0.702771 0.676817 0.857264 -94.659268 6.654255 91.169391 25.848798 7.288076 -40.536217 -11.810921 1.294138 51.144277 -5.569893 2.442047 -21.886591 0.000000 -0.000000 0.000000 -31.855877 0.089134 10.070425 3.560101 30.579092 41.929927 20.123255 10.872216 -11.388357 0.000000 -0.000000 0.000000 2.420132 8.494167 18.297719 7.328864 -7.696711 10.706565 1.837726 0.211715 1.403403 2.086039 13.994834 6.557294 1.733032 7.060213 7.588816 -14.436010 -4.074069 2.026832 -34.857643 -1.358155 -5.011323 0.251040 -38.573642 4.605630 6.901146 -8.190524 -11.271032 22.628225 -1.467436 2.430312 44.631079 -4.649724 3.651290 -29.123601 58.117606 -19.246271 7.075894 4.925128 -2.430559 
0.690246 0.656482 0.857497 -94.336911 8.344869 92.796670 26.121679 7.666736 -42.563043 -11.674733 2.157345 52.959092 -4.421042 2.151152 -23.367462 0.000000 -0.000000 0.000000 -31.561226 -0.563240 9.124648 2.770245 30.334882 39.226178 22.529740 11.819011 -2.340181 0.000000 -0.000000 0.000000 1.735102 9.015459 19.455910 7.567576 -7.989544 10.215964 2.465146 0.459225 1.367193 1.879539 14.282374 6.867622 2.800623 6.911802 7.159460 -13.246647 -5.391820 2.170182 -35.185112 -2.903991 -4.781238 0.410882 -40.790402 4.847128 7.634562 -8.512502 -12.153867 21.716960 -0.726438 3.195396 46.871039 -4.446365 4.068798 -29.083141 57.791992 -18.345633 6.732415 4.748613 -3.270180 
0.677916 0.637653 0.862124 -94.215168 9.656397 94.291546 26.093101 7.686978 -43.613671 -11.429078 2.942060 53.698822 -3.363616 2.157596 -24.780783 0.000000 -0.000000 0.000000 -31.364604 -1.159723 7.856932 2.112064 29.624056 36.835508 25.577213 11.314827 6.806782 0.000000 -0.000000 0.000000 0.937310 9.626390 20.664097 7.653668 -7.993874 9.510071 2.825941 0.347598 1.222464 1.978819 13.687842 6.986674 3.891550 6.671992 6.792124 -12.433806 -5.778357 2.226306 -35.396331 -4.471323 -4.288177 0.062641 -42.699349 5.450019 7.274410 -9.040318 -13.090676 21.828507 -0.659796 3.000737 48.173249 -3.886680 5.005179 -29.002147 57.193050 -18.104331 7.274308 4.242671 -3.329330 
0.665012 0.619642 0.869578 -93.827556 10.919902 95.726736 25.862931 7.053663 -44.102944 -11.023885 3.137511 53.488834 -2.022448 2.849644 -25.455403 0.000000 -0.000000 0.000000 -31.001706 -1.903674 6.776333 1.671989 28.354061 34.500439 26.868745 9.867153 15.170177 0.000000 -0.000000 0.000000 0.364902 10.061449 20.883843 7.823840 -7.882569 9.251260 3.154224 0.313967 1.496278 1.780119 12.808707 7.194009 4.706750 6.511175 6.688260 -12.395935 -6.304028 2.514043 -35.944754 -6.344323 -3.910759 -0.027246 -43.927232 6.009282 7.731974 -8.947555 -13.373781 21.840696 -0.661926 3.468518 49.502201 -2.941354 5.283488 -29.825244 56.342614 -18.843462 6.717561 4.044510 -3.901500 
0.653580 0.601779 0.879511 -94.168666 11.972379 96.831263 25.347372 6.159500 -43.713433 -10.048506 3.279910 52.540222 -0.286009 3.811053 -25.955043 0.000000 -0.000000 0.000000 -30.469413 -2.336431 4.446553 1.658624 26.432783 34.138747 26.778444 7.039923 22.410821 0.000000 -0.000000 0.000000 0.044748 10.217047 21.127466 7.655341 -7.231484 9.158635 3.144683 0.422841 1.634669 1.551238 12.048412 7.163741 5.114643 6.724311 6.887884 -12.611140 -6.247494 2.664059 -37.267560 -8.191366 -3.438244 0.425998 -44.668402 6.118903 7.631875 -8.541475 -13.885003 21.712686 -0.708022 3.760860 50.934132 -2.203562 6.046474 -31.447888 55.340835 -20.296963 6.419533 3.790951 -4.295452 
0.641454 0.584134 0.891029 -94.014503 12.622191 97.728812 24.253055 5.000034 -42.798259 -9.306664 3.083027 50.796411 1.605552 5.143913 -26.042421 0.000000 -0.000000 0.000000 -29.406227 -3.030410 1.866748 0.980038 22.769569 35.780609 24.435789 2.159540 27.148352 0.000000 -0.000000 0.000000 -0.120015 9.776132 21.742788 7.402157 -6.395824 7.897967 3.323018 0.205337 2.285486 0.882419 10.235289 7.105574 5.826440 7.503040 6.799779 -13.421450 -5.986512 3.306984 -38.991262 -9.415169 -2.671424 0.971328 -45.488114 6.074029 8.225274 -7.402781 -15.091533 21.617006 -0.861144 3.888137 51.639959 -2.037077 6.791618 -32.276768 54.912702 -21.242251 5.814176 3.463139 -4.431815 
0.630100 0.567874 0.902681 -93.455916 12.434283 98.152052 22.475370 3.574614 -41.253156 -9.001054 2.664417 48.475333 2.732224 6.029034 -25.975323 0.000000 -0.000000 0.000000 -28.222308 -3.584945 -0.809454 -1.014375 17.706567 39.915596 20.771952 -3.055475 26.160843 0.000000 -0.000000 0.000000 -0.714524 9.111107 22.205624 7.088379 -5.976179 7.385851 3.442410 -0.217004 2.786575 0.940591 8.984616 7.164437 5.841216 8.178708 7.113664 -14.052305 -5.556659 4.268200 -40.785412 -10.277296 -2.080017 1.070603 -46.311375 7.151672 8.308086 -7.162167 -15.618165 21.293179 -0.792965 3.924123 52.645118 -1.855660 7.457653 -32.852828 53.807093 -21.742564 6.249159 3.978921 -4.578338 
0.619849 0.552879 0.913364 -93.049093 11.885419 98.344664 20.462063 2.405296 -39.339699 -8.776863 2.139681 45.735553 3.746238 6.892165 -25.736976 0.000000 -0.000000 0.000000 -26.446855 -3.711304 -4.096836 -3.192104 13.496955 46.079756 15.421613 -8.008613 22.801727 0.000000 -0.000000 0.000000 -1.241769 8.193957 22.213874 6.650113 -5.587798 7.308690 3.216867 -0.447547 3.164879 1.090097 8.100582 7.307397 5.996932 8.483932 7.535935 -14.630739 -5.437992 4.968138 -42.323323 -10.437183 -1.251141 0.375488 -46.724203 9.253634 7.523641 -6.997217 -16.297666 20.779343 -0.735714 4.020551 54.070828 -2.070685 7.857271 -33.523602 52.934423 -21.863234 6.380293 3.828836 -4.741213 
0.609327 0.539177 0.923659 -92.348521 11.205829 98.269488 18.240199 1.586125 -36.817360 -8.724824 1.102319 42.398982 4.356710 7.342091 -25.170955 0.000000 -0.000000 0.000000 -23.312935 -3.004719 -7.315729 -4.609603 11.543887 53.408057 9.895727 -12.682997 18.495811 0.000000 -0.000000 0.000000 -1.479148 6.939613 22.556518 6.206672 -5.020748 6.762739 2.923299 -0.960719 4.088354 1.887223 6.977366 6.159168 7.293655 8.361656 8.551047 -15.180826 -5.093494 4.497040 -43.782725 -10.303828 0.338659 -0.516764 -46.541799 11.645248 6.832216 -6.504424 -16.268333 20.422982 -0.738467 2.838169 55.143163 -2.911511 8.982375 -33.706850 51.701781 -21.768654 6.468487 3.772228 -5.071166 
0.599545 0.527617 0.933289 -91.535096 10.273966 97.908621 16.032410 0.693132 -34.112269 -8.955332 -0.146234 39.182559 4.308597 7.974003 -24.447657 0.000000 -0.000000 0.000000 -19.867184 -1.293730 -10.593833 -4.726945 9.611231 60.544787 6.555645 -14.339716 12.872297 0.000000 -0.000000 0.000000 -1.932507 5.645656 22.668013 5.902872 -4.806261 6.465104 2.603720 -1.398291 4.524964 2.266953 6.708215 6.425181 7.425650 7.825115 8.781161 -16.037850 -5.058065 4.695181 -44.858446 -9.549922 1.377440 -0.849247 -46.395579 12.855498 6.004970 -6.648810 -14.941418 20.058882 -0.738653 2.853861 55.977065 -3.358909 8.754920 -32.481644 50.769680 -20.202800 6.801217 4.070517 -5.847855 
0.591013 0.517625 0.942091 -90.993829 9.079489 97.543169 13.674064 -0.381526 -31.273304 -8.751374 -1.245835 35.893225 4.292842 8.884352 -24.107374 0.000000 -0.000000 0.000000 -16.318269 0.191539 -14.199530 -3.740724 8.429348 66.303497 6.609587 -13.164443 5.709600 0.000000 -0.000000 0.000000 -2.752029 4.592466 22.510118 5.672113 -4.798562 6.358688 2.340263 -1.598411 4.698145 3.229940 7.384914 6.931668 6.800548 6.925462 8.844245 -16.827918 -4.638580 4.555063 -46.132139 -9.014521 2.748076 -0.950698 -45.790404 13.492506 5.411083 -6.719779 -13.557265 19.968001 -1.437654 2.544992 56.371751 -3.815698 8.756844 -30.730649 49.838434 -17.759032 6.435690 3.501032 -6.349953 
0.583472 0.508840 0.950113 -90.458008 7.944900 97.107885 11.611748 -1.614718 -28.277265 -8.589475 -2.341385 32.213753 4.364323 9.943740 -23.528535 0.000000 -0.000000 0.000000 -12.904650 1.805513 -17.774228 -2.559817 6.151781 69.571046 6.878877 -11.767572 1.760206 0.000000 -0.000000 0.000000 -3.347284 3.407076 22.075843 5.456928 -4.796660 6.730938 1.921465 -1.822936 4.510506 4.027644 7.612954 7.365887 6.734953 5.506047 9.249165 -17.394161 -4.185764 4.603638 -47.447836 -8.568407 4.020564 -0.496550 -45.211056 12.861788 4.871645 -6.624461 -12.388800 19.706009 -2.106346 2.492101 57.065060 -4.093307 8.648824 -29.144786 48.593619 -15.616320 6.522071 3.389882 -6.609587 
